<?xml version="1.0" encoding="UTF-8" standalone="no"?>
<!-- Created with Inkscape (http://www.inkscape.org/) -->

<svg
   width="220.20818mm"
   height="111.18681mm"
   viewBox="0 0 220.20818 111.18681"
   version="1.1"
   id="svg833"
   inkscape:version="1.1.2 (0a00cf5339, 2022-02-04, custom)"
   sodipodi:docname="robot-and-city.svg"
   inkscape:export-filename="G:\My Drive\Projects\Sheffield AI\svg graphics\logo.png"
   inkscape:export-xdpi="131.78"
   inkscape:export-ydpi="131.78"
   xmlns:inkscape="http://www.inkscape.org/namespaces/inkscape"
   xmlns:sodipodi="http://sodipodi.sourceforge.net/DTD/sodipodi-0.dtd"
   xmlns="http://www.w3.org/2000/svg"
   xmlns:svg="http://www.w3.org/2000/svg">
  <sodipodi:namedview
     id="namedview835"
     pagecolor="#ffffff"
     bordercolor="#666666"
     borderopacity="1.0"
     inkscape:pageshadow="2"
     inkscape:pageopacity="0.0"
     inkscape:pagecheckerboard="0"
     inkscape:document-units="mm"
     showgrid="false"
     inkscape:zoom="0.44473809"
     inkscape:cx="-619.46572"
     inkscape:cy="-267.57321"
     inkscape:window-width="2560"
     inkscape:window-height="1369"
     inkscape:window-x="-8"
     inkscape:window-y="-8"
     inkscape:window-maximized="1"
     inkscape:current-layer="layer1"
     fit-margin-top="5"
     fit-margin-left="0"
     fit-margin-right="0"
     fit-margin-bottom="0"
     inkscape:snap-global="false" />
  <defs
     id="defs830">
    <rect
       x="384.49597"
       y="1250.174"
       width="1077.0385"
       height="299.0524"
       id="rect77797" />
    <inkscape:path-effect
       effect="fill_between_many"
       method="originald"
       linkedpaths="#path10025,0,1"
       id="path-effect10027"
       is_visible="true"
       lpeversion="0"
       join="true"
       close="true"
       autoreverse="true"
       applied="false" />
    <rect
       x="384.49597"
       y="1250.174"
       width="1077.0385"
       height="299.0524"
       id="rect77797-5" />
  </defs>
  <g
     inkscape:label="Layer 1"
     inkscape:groupmode="layer"
     id="layer1"
     transform="translate(-207.13709,-45.430203)">
    <g
       id="g29446"
       transform="translate(51.163071,211.79132)">
      <g
         id="g69185"
         transform="matrix(0.57006324,0,0,0.57006324,156.47696,-95.26759)">
        <path
           style="fill:#fdbc6a;fill-opacity:1;stroke:none;stroke-width:0.264583px;stroke-linecap:butt;stroke-linejoin:miter;stroke-opacity:1"
           d="m 273.78469,38.44922 c -2.47673,-0.13043 -5.27364,0.38069 -7.00661,2.28367 -0.86731,1.62345 -1.82369,3.34537 -1.91274,5.21543 -0.0331,2.53759 1.33426,4.8955 2.9357,6.7662 1.9412,1.8811 5.01462,1.19191 7.36196,0.59804 2.86058,-1.00573 5.04368,-3.86712 4.91533,-6.94757 0.58361,-2.04026 -0.77411,-3.88367 -2.21197,-5.1644 -1.052,-1.2584 -2.21005,-2.94204 -4.08167,-2.75137 z"
           id="path37676" />
        <path
           style="fill:#91271f;fill-opacity:1;stroke:none;stroke-width:0.264583px;stroke-linecap:butt;stroke-linejoin:miter;stroke-opacity:1"
           d="m 284.03856,35.03127 c -1.95194,0.46741 -2.98544,2.43073 -3.99862,3.98639 -1.83396,3.03836 -1.95939,7.10666 0.0996,10.06886 0.69866,1.35636 2.19183,2.11407 3.70335,1.85591 2.97911,-0.14323 5.86452,-2.80158 5.58315,-5.91477 0.18023,-2.99146 0.13722,-6.36763 -2.08942,-8.67067 -0.63338,-0.7743 -2.17704,-1.24606 -3.29806,-1.32572"
           id="path37678"
           sodipodi:nodetypes="ccccccc" />
        <path
           style="fill:#3f4231;fill-opacity:1;stroke:none;stroke-width:0.264583px;stroke-linecap:butt;stroke-linejoin:miter;stroke-opacity:1"
           d="m 365.36986,29.717556 c -1.79927,-0.0584 -3.78188,0.64034 -4.55255,2.39485 -0.97444,1.99644 -1.06623,4.43582 -0.34586,6.52187 0.91467,2.07459 3.40617,2.47072 5.41473,2.65951 2.68876,0.29479 5.15252,-1.87157 5.54927,-4.47934 0.49592,-2.40253 -0.50851,-5.18488 -2.83474,-6.2419 -0.9957,-0.51446 -2.10966,-0.81761 -3.23085,-0.85499 z"
           id="path37682"
           sodipodi:nodetypes="ccccsscssssssssscscsssssssccssscscccsccsscccccccssssccssscssssssssssccssccscc" />
        <path
           style="fill:#434836;fill-opacity:1;stroke:none;stroke-width:0.264583px;stroke-linecap:butt;stroke-linejoin:miter;stroke-opacity:1"
           d="m 379.54413,24.373836 c -1.80272,0.3736 -2.95493,2.1299 -3.38625,3.84433 -0.89024,2.09125 -0.90738,4.40744 -1.01864,6.64 0.0104,2.08881 0.36901,4.40018 1.9483,5.91101 1.08915,0.92958 2.51388,1.7719 3.99969,1.49208 0.89108,-0.21645 1.50651,-0.96907 2.12696,-1.5925 1.65712,-1.95655 2.237,-4.61648 2.18799,-7.12808 -0.12468,-2.35174 -0.75503,-4.64335 -1.45855,-6.87784 -0.67151,-1.53112 -2.39319,-2.65927 -4.08108,-2.36574"
           id="path37686"
           sodipodi:nodetypes="ccccccccc" />
        <path
           style="fill:#000000;stroke-width:0.264583"
           d="m 378.98083,40.668752 c 0.0671,-8.17118 0.17492,-9.94322 0.57931,-9.5247 0.0586,0.0606 0.20742,4.30735 0.33073,9.43715 l 0.22421,9.32691 -0.60508,-2.7e-4 -0.60508,-2.6e-4 0.0759,-9.23867 z"
           id="path69136" />
        <path
           style="fill:#000000;stroke-width:0.264583"
           d="m 364.63695,44.294862 c 0,-5.58814 0.0162,-5.76453 0.52917,-5.76453 0.51309,0 0.52917,0.17639 0.52917,5.80439 0,5.64129 -0.0149,5.80327 -0.52917,5.76453 -0.51175,-0.0385 -0.52917,-0.22953 -0.52917,-5.80439 z"
           id="path69134" />
        <path
           style="fill:#000000;stroke-width:0.264583"
           d="m 282.82435,53.692806 c 0.18422,-10.20461 0.27164,-11.45315 0.80199,-11.45315 0.48514,0 0.61859,1.98717 0.81802,12.18125 l 0.16325,8.3448 -0.97471,0.0657 -0.9747,0.0656 z"
           id="path69132" />
        <path
           style="fill:#000000;stroke-width:0.264583"
           d="m 272.31949,58.058876 c -0.0518,-0.91521 -0.0946,-0.23526 -0.0952,1.51099 -5.3e-4,1.74625 0.0419,2.49505 0.0942,1.66401 0.0523,-0.83104 0.0528,-2.25979 10e-4,-3.175 z"
           id="path69130" />
        <path
           style="fill:#000000;stroke-width:0.264583"
           d="m 271.59821,55.799546 c 0.004,-6.86246 0.15361,-8.72793 0.66081,-8.22073 0.0904,0.0905 0.23462,3.68865 0.32038,7.99598 l 0.15592,7.83152 h -0.57058 -0.57058 l 0.004,-7.60677 z"
           id="path69128" />
      </g>
    </g>
    <g
       id="g2739"
       transform="translate(-286.75117,40.157062)">
      <path
         style="fill:#ececd2;fill-opacity:1;stroke:none;stroke-width:0.264583px;stroke-linecap:butt;stroke-linejoin:miter;stroke-opacity:1"
         d="m 576.35923,52.738801 c 0,0 -2.10456,-10.30453 5.83473,-19.8227 7.93929,-9.51817 17.00075,-9.02696 17.00075,-9.02696 l 2.11666,0.005 c 0,0 7.79506,-1.30642 16.37675,7.70695 8.58169,9.01336 6.37742,21.1373 6.37742,21.1373 h -47.70631"
         id="path12250"
         sodipodi:nodetypes="czcczcc" />
      <path
         style="fill:#ececd2;fill-opacity:1;stroke:none;stroke-width:0.264583px;stroke-linecap:butt;stroke-linejoin:miter;stroke-opacity:1"
         d="m 576.44054,56.442911 -0.18857,14.80688 c 0,0 1.57069,5.46966 2.89213,8.09793 1.32143,2.62827 4.23257,5.67015 4.23257,5.67015 h 33.87059 c 0,0 3.82294,-3.55657 5.27859,-7.1425 1.45564,-3.58593 1.73527,-7.5195 1.73527,-7.5195 l 0.069,-13.91296 z"
         id="path21734"
         sodipodi:nodetypes="cczcczccc" />
      <path
         style="fill:#c7cfbb;fill-opacity:1;stroke:none;stroke-width:0.264583px;stroke-linecap:butt;stroke-linejoin:miter;stroke-opacity:1"
         d="m 623.96037,56.209351 c 0,0 0.94948,14.67333 -0.63101,19.49324 -1.58049,4.81991 -6.2049,9.00725 -6.2049,9.00725 l -16.19586,0.21034 c 0,0 3.0513,-2.88824 5.40439,-6.9542 2.35309,-4.06596 2.88135,-8.1408 3.21938,-11.23984 0.33803,-3.09905 0,-10.41163 0,-10.41163 z"
         id="path26429"
         sodipodi:nodetypes="czcczzcc" />
      <path
         style="fill:#c7cfbb;fill-opacity:1;stroke:none;stroke-width:0.264583px;stroke-linecap:butt;stroke-linejoin:miter;stroke-opacity:1"
         d="m 609.60495,52.528471 0.15776,-8.36085 c 0,0 1.32957,-3.52732 1.47235,-9.20219 0.14278,-5.67486 -6.15232,-10.83229 -6.15232,-10.83229 0,0 9.06396,2.04294 13.82957,8.36085 4.76562,6.31791 5.31098,13.04081 5.31098,13.04081 l -0.15775,7.20401 z"
         id="path28928"
         sodipodi:nodetypes="cczczccc" />
      <path
         style="fill:#000000;stroke-width:0.264583"
         d="m 579.08637,116.08109 c 0,-0.0867 0.21668,-0.47363 0.4815,-0.85989 0.26482,-0.38627 1.47737,-2.52124 2.69454,-4.74438 1.66778,-3.04617 2.36401,-4.07997 2.82579,-4.19587 0.60944,-0.15296 0.61276,-0.17725 0.61276,-4.49074 v -4.336939 h 1.75805 1.75805 l -0.16867,-1.78594 c -0.0928,-0.98226 -0.16952,-2.17289 -0.17055,-2.64583 l -0.002,-0.8599 h -1.5875 -1.5875 l -0.004,-2.57968 c -0.005,-3.6661 -0.049,-3.77032 -1.5882,-3.77032 -1.19646,0 -1.33812,-0.0794 -2.59647,-1.45628 -1.58376,-1.73289 -2.92375,-3.87634 -3.98511,-6.37457 -0.77686,-1.8286 -1.61263,-5.25572 -1.62024,-6.64393 -0.006,-1.1442 -0.32994,-1.4467 -1.447,-1.35238 -0.98692,0.0833 -1.03333,0.13932 -3.46837,4.18549 l -2.46806,4.10105 -0.0104,4.90808 -0.0104,4.90808 3.30729,2.86807 c 1.81901,1.57745 3.30729,2.93223 3.30729,3.01064 0,0.57466 -0.70681,1.89992 -1.0133,1.89992 -0.20781,0 -1.25873,-0.60031 -2.33538,-1.33401 -2.74323,-1.86944 -2.91657,-1.90813 -2.19377,-0.48969 0.32573,0.63923 1.06003,1.90347 1.63176,2.8094 0.57174,0.90594 0.97371,1.75364 0.89328,1.88378 -0.0804,0.13014 -0.52659,0.39417 -0.99147,0.58673 l -0.84523,0.35011 -1.53734,-1.70473 c -0.84554,-0.93759 -1.5393,-1.62441 -1.5417,-1.52627 -0.002,0.0981 0.36135,1.09174 0.80832,2.20799 0.44697,1.11625 0.77439,2.065289 0.72761,2.108989 -0.0468,0.0437 -0.56132,0.21055 -1.1434,0.37079 -0.91258,0.25122 -1.10612,0.22771 -1.40532,-0.17076 -0.90462,-1.204759 -3.75406,-6.949289 -3.75406,-7.568259 0,-0.44501 -0.14423,-0.69907 -0.39687,-0.69907 -0.21828,0 -0.39688,-0.11906 -0.39688,-0.26458 0,-0.14552 0.11907,-0.26459 0.26459,-0.26459 0.14552,0 0.26458,-0.17859 0.26458,-0.39687 0,-0.21828 -0.13258,-0.39688 -0.29463,-0.39688 -0.28236,0 -0.13945,-1.89627 0.21193,-2.81195 0.1057,-0.27545 -0.15619,-0.36305 -1.08546,-0.36305 h -1.22477 l 0.072,-4.96093 0.072,-4.96094 3.63802,-0.0736 c 2.99306,-0.0606 3.63802,-0.14265 3.63802,-0.46302 0,-0.32273 -0.58528,-0.38941 -3.41794,-0.38941 -3.46775,0 -4.25497,-0.10874 -4.25497,-0.58772 0,-0.14657 1.56575,-2.97761 3.47945,-6.29119 l 3.47946,-6.02468 1.19397,-0.16365 c 1.01849,-0.1396 1.40544,-0.0443 2.63264,0.64827 l 1.43865,0.81193 -0.75427,-0.98935 c -1.96609,-2.57884 0.17658,-6.42053 3.41291,-6.11916 l 1.25677,0.11703 v -1.65838 -1.65838 l 1.91823,-0.168 c 1.05502,-0.0924 12.1576,-0.13232 24.67239,-0.0887 l 22.75417,0.0793 0.0767,1.71979 0.0767,1.71979 h 1.42523 c 1.0358,0 1.62934,0.15215 2.17223,0.55683 1.85504,1.38276 2.33213,3.8205 1.07127,5.47375 l -0.73407,0.96253 1.39553,-0.6497 c 0.76776,-0.35744 1.88813,-0.65086 2.49058,-0.65228 l 1.09506,-0.003 3.74772,6.22011 c 2.06125,3.42105 3.67481,6.33809 3.58569,6.48229 -0.0912,0.14755 -1.45663,0.26376 -3.12299,0.2658 -3.28861,0.004 -4.15157,0.14723 -4.15157,0.68877 0,0.29355 0.7071,0.36601 3.57187,0.36601 h 3.57188 v 4.89479 4.89479 h -1.32292 c -0.7276,0 -1.32163,0.0298 -1.32005,0.0662 0.002,0.0364 0.17447,0.63169 0.38422,1.32292 0.35486,1.16945 0.32559,1.3693 -0.18865,1.2881 -0.10914,-0.0172 -0.19844,0.26632 -0.19844,0.63013 0,0.3638 0.11907,0.66145 0.26459,0.66145 0.14552,0 0.26458,0.1786 0.26458,0.39688 0,0.21828 -0.11906,0.39687 -0.26458,0.39687 -0.14552,0 -0.26459,0.16346 -0.26459,0.36325 0,0.57695 -1.00419,2.73203 -2.5733,5.52251 l -1.44988,2.578459 -1.09726,-0.16788 c -0.6035,-0.0923 -1.14697,-0.21095 -1.20773,-0.26359 -0.13479,-0.11677 0.2464,-1.335239 1.01652,-3.249319 l 0.57708,-1.43428 -1.87885,1.7724 -1.87884,1.77241 -0.78095,-0.46131 c -0.42953,-0.25373 -0.77905,-0.58448 -0.77673,-0.735 0.002,-0.15053 0.77853,-1.45209 1.72491,-2.89235 0.94638,-1.44027 1.66394,-2.67542 1.59458,-2.74478 -0.0694,-0.0694 -0.51816,0.11133 -0.99731,0.40154 -0.47916,0.29021 -1.57857,0.95981 -2.44313,1.48801 -0.86457,0.52819 -1.66664,0.96035 -1.78239,0.96035 -0.11575,0 -0.39536,-0.44254 -0.62135,-0.98343 l -0.4109,-0.98342 1.00266,-0.86574 c 0.55147,-0.47616 2.16352,-1.84682 3.58235,-3.04592 l 2.57969,-2.18018 v -4.50759 c 0,-3.80639 -0.072,-4.63426 -0.46302,-5.32181 -2.56063,-4.5028 -4.92738,-8.0598 -5.27423,-7.9267 -0.2153,0.0826 -0.72168,0.15021 -1.1253,0.15021 -0.70663,0 -0.73982,0.0613 -0.89477,1.65364 -0.25253,2.59511 -0.86972,4.61516 -2.2837,7.47448 -1.32431,2.67801 -3.69631,5.75007 -4.97249,6.44006 -0.40479,0.21886 -0.99917,0.29025 -1.55245,0.18645 l -0.89654,-0.16819 v 3.18699 3.18698 h -1.85208 -1.85209 v 2.64584 2.64583 h 1.71979 1.7198 v 4.336939 c 0,4.28275 0.007,4.33882 0.59802,4.48704 0.4461,0.11196 1.23591,1.30674 3.10886,4.70286 1.38095,2.50402 2.54932,4.71157 2.59637,4.90567 0.0708,0.29193 -3.57523,0.35291 -21.10052,0.35291 -11.65234,0 -21.18607,-0.0709 -21.18607,-0.1576 z m 26.19548,-9.6744 c 0.48681,-0.40544 0.52744,-0.76722 0.52744,-4.69635 v -4.257069 h 1.71979 1.71979 v -2.64583 -2.64584 h -1.85208 -1.85208 v -3.03186 -3.03188 l -5.15966,-0.077 -5.15966,-0.077 2.6e-4,3.09727 2.7e-4,3.09726 -1.91823,0.0777 -1.91823,0.0777 v 2.51354 2.51354 l 1.65365,0.0788 1.65364,0.0788 v 4.211399 c 0,3.8883 0.0391,4.23235 0.51016,4.48443 0.48405,0.25905 0.87847,0.91874 3.8499,6.43915 l 1.25304,2.32794 2.22226,-4.04773 c 1.22224,-2.22625 2.45961,-4.24541 2.7497,-4.48702 z m 7.93577,-0.61904 c 0,-0.32873 -0.49977,-0.39688 -2.91041,-0.39688 -3.63044,0 -3.89491,0.47699 -0.33073,0.5965 1.41883,0.0476 2.72851,0.11142 2.91041,0.14188 0.18191,0.0305 0.33073,-0.12322 0.33073,-0.3415 z m -20.10833,-0.1323 c 0,-0.16035 -1.14653,-0.26458 -2.91042,-0.26458 -1.76389,0 -2.91041,0.10423 -2.91041,0.26458 0,0.16036 1.14652,0.26459 2.91041,0.26459 1.76389,0 2.91042,-0.10423 2.91042,-0.26459 z m 0,-1.98437 c 0,-0.32872 -0.49977,-0.39688 -2.91042,-0.39688 -2.41064,0 -2.91041,0.0682 -2.91041,0.39688 0,0.32872 0.49977,0.39687 2.91041,0.39687 2.41065,0 2.91042,-0.0681 2.91042,-0.39687 z m 20.10833,0 c 0,-0.32872 -0.49977,-0.39688 -2.91041,-0.39688 -2.41065,0 -2.91042,0.0682 -2.91042,0.39688 0,0.32872 0.49977,0.39687 2.91042,0.39687 2.41064,0 2.91041,-0.0681 2.91041,-0.39687 z m -20.10833,-1.95352 c 0,-0.5145 -3.15011,-0.76344 -4.99401,-0.39466 -1.69496,0.33899 -0.7354,0.62839 2.08359,0.62839 1.60073,0 2.91042,-0.10518 2.91042,-0.23373 z m 20.10833,-0.16315 c 0,-0.31918 -0.4079,-0.39687 -2.08359,-0.39687 -2.32235,0 -3.73724,0.21286 -3.73724,0.56224 0,0.12733 1.30969,0.23151 2.91042,0.23151 2.41064,0 2.91041,-0.0682 2.91041,-0.39688 z m -20.17366,-1.918229 c 0.0833,-0.25184 -0.62155,-0.33073 -2.95533,-0.33073 -1.73552,0 -3.06476,0.10783 -3.06476,0.24862 0,0.558799 5.83603,0.638399 6.02009,0.0821 z m 20.17366,0.0662 c 0,-0.32872 -0.49977,-0.39688 -2.91041,-0.39688 -2.66403,0 -3.22477,0.12662 -2.73403,0.61736 0.097,0.097 1.4067,0.176389 2.91042,0.176389 2.25385,0 2.73402,-0.0697 2.73402,-0.396869 z m 24.73854,-8.06979 c -0.0899,-0.14552 -0.75883,-0.26459 -1.48643,-0.26459 -0.81457,0 -1.26009,0.10167 -1.1594,0.26459 0.0899,0.14552 0.75883,0.26458 1.48644,0.26458 0.81457,0 1.26008,-0.10167 1.15939,-0.26458 z m -72.27211,-0.19844 c 0.0674,-0.10914 -0.43153,-0.16286 -1.10887,-0.11938 -1.93223,0.12404 -2.16657,0.25355 -0.51953,0.28713 0.82816,0.0169 1.56094,-0.0586 1.6284,-0.16775 z m 72.40036,-1.32042 c -0.01,-0.49684 -0.46873,-0.82783 -1.38562,-0.99985 -0.9185,-0.17231 -0.99149,-0.13997 -0.99028,0.43874 10e-4,0.55356 0.13685,0.63258 1.19063,0.6934 0.65412,0.0378 1.18749,-0.0218 1.18527,-0.13229 z m -73.02095,-0.61378 c 0,-0.46796 -0.14015,-0.53351 -0.98999,-0.46302 -0.69187,0.0574 -1.01641,0.22155 -1.07773,0.54514 -0.0719,0.37955 0.10653,0.46302 0.98998,0.46302 0.91187,0 1.07774,-0.0839 1.07774,-0.54514 z m 1.46153,-0.004 c 0.25502,-0.8035 -0.003,-0.88594 -0.35455,-0.11347 -0.16604,0.36442 -0.1934,0.66258 -0.0608,0.66258 0.1326,0 0.31951,-0.2471 0.41536,-0.54911 z m 68.19947,-0.24876 c -0.14901,-0.5698 -0.60475,-0.99355 -0.60475,-0.5623 0,0.45124 0.31329,1.09558 0.5327,1.09558 0.11633,0 0.14875,-0.23998 0.072,-0.53328 z m -66.486,-0.52505 c 0,-0.14552 -0.11907,-0.26458 -0.26459,-0.26458 -0.14552,0 -0.26458,0.11906 -0.26458,0.26458 0,0.14552 0.11906,0.26458 0.26458,0.26458 0.14552,0 0.26459,-0.11906 0.26459,-0.26458 z m -5.02709,-1.85208 c 0,-0.44098 -0.17639,-0.52917 -1.05833,-0.52917 -0.88194,0 -1.05833,0.0882 -1.05833,0.52917 0,0.44097 0.17639,0.52916 1.05833,0.52916 0.88194,0 1.05833,-0.0882 1.05833,-0.52916 z m 3.65522,-0.0662 c 0.0719,-0.37955 -0.10653,-0.46302 -0.98998,-0.46302 -0.91187,0 -1.07774,0.0839 -1.07774,0.54514 0,0.46796 0.14015,0.53351 0.98999,0.46302 0.69187,-0.0574 1.01641,-0.22155 1.07773,-0.54514 z m 69.63437,0.0662 c 0,-0.45077 -0.17639,-0.52917 -1.19063,-0.52917 -0.85475,0 -1.19062,0.10649 -1.19062,0.37748 0,0.40601 0.49688,0.60137 1.65364,0.65016 0.56145,0.0237 0.72761,-0.0901 0.72761,-0.49847 z m 3.0414,0.26508 c 0.90191,-0.34291 0.61061,-0.79425 -0.51262,-0.79425 -0.65705,0 -0.91457,0.13387 -1.01795,0.52917 -0.15843,0.60585 0.38619,0.70017 1.53057,0.26508 z m -72.62682,-2.51404 c 0,-0.32873 -0.49977,-0.39688 -2.91042,-0.39688 -2.41065,0 -2.91041,0.0682 -2.91041,0.39688 0,0.32872 0.49976,0.39687 2.91041,0.39687 2.41065,0 2.91042,-0.0682 2.91042,-0.39687 z m 51.25574,-0.59531 c 2.74777,-2.95057 4.35527,-5.93381 5.38199,-9.98803 0.50056,-1.97656 0.60658,-3.12318 0.62381,-6.74687 l 0.0207,-4.36563 -23.90901,-0.0676 -23.90901,-0.0676 0.18816,4.56548 c 0.10351,2.51101 0.34936,5.33938 0.54636,6.28526 0.83059,3.98802 2.41111,7.21725 4.79008,9.78683 l 1.47231,1.59026 h 16.93529 16.9353 z m 21.76926,0.59531 c 0,-0.32977 -0.51447,-0.39688 -3.04271,-0.39688 -2.52824,0 -3.04271,0.0671 -3.04271,0.39688 0,0.32977 0.51447,0.39687 3.04271,0.39687 2.52824,0 3.04271,-0.0671 3.04271,-0.39687 z m -73.025,-1.86104 c 0,-0.34404 -0.42972,-0.39439 -2.82275,-0.33073 -1.96738,0.0523 -2.85599,0.17532 -2.93246,0.40583 -0.0834,0.25129 0.59464,0.33073 2.82274,0.33073 2.459,0 2.93247,-0.0655 2.93247,-0.40583 z m 72.95938,-0.0572 c 0.0834,-0.25129 -0.59465,-0.33073 -2.82275,-0.33073 -2.45899,0 -2.93246,0.0655 -2.93246,0.40583 0,0.34405 0.42971,0.39439 2.82274,0.33073 1.96739,-0.0523 2.856,-0.17532 2.93247,-0.40583 z m -73.02385,-1.71979 c -0.0597,-0.1819 -0.51612,-0.37097 -1.01424,-0.42016 -1.34973,-0.13329 -4.74212,0.23075 -4.74212,0.50888 0,0.13311 1.31961,0.24201 2.93246,0.24201 2.22749,0 2.90637,-0.0795 2.8239,-0.33073 z m 72.82489,-0.0661 c 0,-0.32758 -0.48507,-0.39687 -2.77813,-0.39687 -2.29305,0 -2.77812,0.0693 -2.77812,0.39687 0,0.32758 0.48507,0.39688 2.77812,0.39688 2.29306,0 2.77813,-0.0693 2.77813,-0.39688 z m -72.89271,-1.45521 c 0.0899,-0.14552 0.0672,-0.26674 -0.0505,-0.26938 -0.11773,-0.003 -1.37491,-0.0781 -2.79374,-0.16769 -1.76996,-0.11176 -2.57969,-0.0733 -2.57969,0.12259 0,0.45836 5.15048,0.75698 5.42396,0.31448 z m 73.06024,-0.057 c 0.0705,-0.11415 -1.18843,-0.20756 -2.79775,-0.20756 -1.88857,0 -2.92603,0.0996 -2.92603,0.28105 0,0.32882 5.51894,0.25796 5.72378,-0.0735 z m -4.35798,-4.33375 c 1.14058,-0.66867 2.07378,-1.31649 2.07378,-1.43959 0,-0.56541 -0.56967,-0.40286 -2.39632,0.68377 -1.08311,0.64433 -2.07968,1.20972 -2.21459,1.25643 -0.25113,0.087 0.0157,0.71516 0.30379,0.71516 0.0878,0 1.09277,-0.5471 2.23334,-1.21577 z m -67.51164,0.6015 c 0,-0.36311 -3.60719,-2.56073 -4.2032,-2.56073 -0.71005,0 -0.0597,0.67806 1.70086,1.77341 1.90833,1.18727 2.50234,1.37417 2.50234,0.78732 z m 67.94986,-3.35448 c 0.37859,-0.26172 0.49854,-0.51466 0.35223,-0.74277 -0.16978,-0.2647 -0.72659,-0.0425 -2.37221,0.94674 -1.55711,0.93602 -2.07047,1.37252 -1.86082,1.58217 0.2751,0.2751 2.1423,-0.58428 3.8808,-1.78614 z m -66.89152,1.51066 c 0,-0.38501 -4.10387,-2.87484 -4.3435,-2.63521 -0.33639,0.33639 -0.0824,0.59294 1.74448,1.76173 1.95447,1.25045 2.59902,1.46707 2.59902,0.87348 z m 65.66357,-3.39895 c 0.45141,-0.34111 0.53644,-0.54278 0.3203,-0.7597 -0.21641,-0.21718 -0.82893,0.0293 -2.31511,0.93157 -1.95835,1.18894 -2.21254,1.43653 -1.84854,1.80053 0.17656,0.17656 2.74137,-1.13969 3.84335,-1.9724 z m -64.4127,1.44297 c 0.0867,-0.25998 -3.949,-2.72968 -4.46049,-2.72968 -0.74524,0 0.0384,0.82489 1.82134,1.91733 2.0148,1.23446 2.45344,1.36948 2.63915,0.81235 z m 61.9184,-2.45692 c 1.05502,-0.61975 1.91823,-1.29184 1.91823,-1.49354 0,-0.20169 -0.11785,-0.36672 -0.26188,-0.36672 -0.20307,0 -3.75862,2.14271 -4.19639,2.52891 -0.15973,0.14091 0.25214,0.65983 0.44165,0.55644 0.0991,-0.0541 1.04336,-0.60534 2.09839,-1.22509 z m -60.87423,0.63675 c 0.0759,-0.23791 -3.60765,-2.53194 -4.36869,-2.72071 -0.90389,-0.22421 0.027,0.72206 1.82982,1.86009 1.91716,1.21018 2.37752,1.36623 2.53887,0.86062 z m 47.77735,-9.60449 5.22552,-0.0363 v -1.9844 -1.98437 h -23.94479 -23.94479 l -1.7e-4,2.18281 -1.7e-4,2.18281 18.71944,-0.16216 c 10.29569,-0.0892 21.07093,-0.17849 23.94496,-0.19844 z m -43.45781,-9.939 c 0,-1.80848 0.12612,-4.21949 0.28027,-5.35781 0.36744,-2.71342 1.73282,-6.68994 3.14384,-9.15608 1.43259,-2.50384 4.25804,-5.83145 6.34088,-7.46782 l 1.61209,-1.26654 v -3.83163 -3.83164 l -1.19062,-1.10876 c -1.08887,-1.014 -1.19063,-1.21633 -1.19063,-2.36739 0,-1.03835 0.13537,-1.394 0.7734,-2.03203 0.64377,-0.64378 0.98745,-0.77242 2.05052,-0.76752 1.87375,0.009 2.99692,1.09718 2.99692,2.90453 0,0.99581 -0.39414,1.82798 -1.15006,2.42822 -0.51134,0.40604 -0.56417,0.73848 -0.62013,3.90261 -0.0336,1.90232 0.0399,3.45876 0.16335,3.45876 0.12348,0 0.98626,-0.35647 1.91728,-0.79215 1.71595,-0.80298 4.87352,-1.67693 7.16404,-1.98284 l 1.25677,-0.16785 v -3.39692 -3.39691 l -0.92605,-0.92604 c -0.78899,-0.78899 -0.92604,-1.10555 -0.92604,-2.13895 0,-0.9663 0.15698,-1.38859 0.77205,-2.07698 0.67693,-0.75762 0.93507,-0.86407 2.09535,-0.86407 1.52748,0 2.48195,0.68804 2.95879,2.13289 0.37787,1.14497 -0.2169,2.60565 -1.3156,3.23092 l -0.80307,0.45702 -0.002,3.50573 -0.002,3.50573 0.99219,0.004 c 1.71986,0.006 5.68311,0.95543 7.57722,1.81514 1.00239,0.45497 1.8656,0.82722 1.91823,0.82722 0.0526,0 0.0957,-1.44728 0.0957,-3.21617 0,-3.02252 -0.0398,-3.26837 -0.66113,-4.08296 -0.98205,-1.28754 -1.19971,-2.03967 -0.90214,-3.11736 0.68307,-2.47389 4.32491,-2.81481 5.50106,-0.51497 0.74321,1.45328 -0.1072,3.72458 -1.56816,4.18827 -0.48279,0.15323 -0.51754,0.42578 -0.51754,4.05814 v 3.89387 l 0.84236,0.4976 c 1.56041,0.92176 5.00367,4.46736 6.45138,6.64314 3.00873,4.52184 4.07497,8.26346 4.27447,14.99992 l 0.1391,4.69635 h -24.77137 -24.77136 z m 48.41875,-0.52917 c 0,-1.51743 -0.1274,-3.69032 -0.2831,-4.82864 -0.38962,-2.84833 -1.92088,-7.33416 -3.31865,-9.72195 -3.57725,-6.11104 -10.59084,-10.63595 -17.63106,-11.37494 l -1.52136,-0.15969 v 5.69085 5.69085 l 8.00365,0.001 c 10.95405,10e-4 10.51719,-0.31183 10.51719,7.53964 0,5.36891 -0.13202,5.97354 -1.50783,6.90602 -0.70656,0.47888 -1.52026,0.50461 -17.44247,0.55151 -18.64272,0.0549 -17.99858,0.115 -18.9616,-1.76899 -0.41477,-0.81143 -0.46389,-1.54819 -0.39688,-5.95312 0.11573,-7.60672 -0.34408,-7.27604 10.11751,-7.27604 l 7.55377,-7e-5 v -5.69359 -5.69358 l -0.59532,0.12289 c -0.32742,0.0676 -1.1826,0.19947 -1.9004,0.29308 -1.78804,0.23318 -5.42276,1.5006 -7.24315,2.52569 -4.83728,2.72394 -9.23266,7.73954 -11.17069,12.74696 -1.1328,2.92689 -1.58504,5.36436 -1.76686,9.52303 l -0.15906,3.63802 h 23.85315 23.85316 z m -32.38528,-3.03689 c 1.56817,-0.71218 2.31692,-1.89947 2.42809,-3.85022 0.10752,-1.88661 -0.43731,-3.12095 -1.78312,-4.03971 -1.76855,-1.20737 -3.91882,-1.10255 -5.47872,0.26706 -2.2614,1.98554 -2.22363,5.17865 0.0831,7.0231 1.49594,1.19615 3.01515,1.38795 4.75067,0.59977 z m 21.67813,-0.41287 c 3.62402,-2.12382 1.97908,-8.08124 -2.23041,-8.07783 -2.03386,0.002 -3.72361,1.32262 -4.22933,3.30631 -0.96843,3.79862 3.05219,6.76847 6.45974,4.77152 z"
         id="path5366"
         sodipodi:nodetypes="csssscccccccccssscsscccsssssssscscsssssssssssscccssssscsscsscccsscccssscsscsscsscccscssssssssccsscccscsssssscsscscsssssscccccccccscssscccscccccccccccccccccccssscsccsssssssssssssssssssssssssssssssssssssssssssscsscssccssssssscssscssccssssssssssssssssssssssssssssssscccccsscccsssssssscsssssssssssssssssccssccssssssssssssssssssssssssssssscsccssssssssssccccccccssccssscccssscsscssscccssssssccccsssssssscsssccccssssccccsssssccccssssscccssssssssscss" />
      <path
         d="m 601.31137,23.894561 v 5.69085 5.69085 l -2.11666,5e-5 v -5.69359 -5.69358"
         style="fill:#c33b36;fill-opacity:1;stroke-width:0.0700042"
         id="path6476" />
      <path
         style="fill:#c33b36;fill-opacity:1;stroke:none;stroke-width:0.264583px;stroke-linecap:butt;stroke-linejoin:miter;stroke-opacity:1"
         d="m 576.4402,60.808531 -0.0604,1.98151 47.81802,0.13512 0.13234,-2.51348 z"
         id="path10418" />
      <circle
         style="fill:#67a599;fill-opacity:1;stroke:none;stroke-width:0.952;stroke-linecap:round"
         id="path14518"
         cx="589.71344"
         cy="42.854462"
         r="4.627387" />
      <circle
         style="fill:#67a599;fill-opacity:1;stroke:none;stroke-width:0.370629;stroke-linecap:round"
         id="path14518-8"
         cx="612.901"
         cy="16.027487"
         r="1.8015198" />
      <circle
         style="fill:#67a599;fill-opacity:1;stroke:none;stroke-width:0.370629;stroke-linecap:round"
         id="path14518-8-7"
         cx="600.25879"
         cy="13.074667"
         r="1.8015198" />
      <circle
         style="fill:#67a599;fill-opacity:1;stroke:none;stroke-width:0.370629;stroke-linecap:round"
         id="path14518-8-6"
         cx="587.49634"
         cy="16.180716"
         r="1.8015198" />
      <circle
         style="fill:#dabf8a;fill-opacity:1;stroke:none;stroke-width:0.952;stroke-linecap:round"
         id="path14518-1"
         cx="610.78162"
         cy="42.873222"
         r="4.627387" />
    </g>
    <g
       id="g69199"
       transform="matrix(0.55909048,0,0,0.55909048,95.263497,147.726)">
      <path
         style="fill:#434836;fill-opacity:1;stroke:none;stroke-width:0.264583px;stroke-linecap:butt;stroke-linejoin:miter;stroke-opacity:1"
         d="m 228.51879,-30.9167 c -1.59285,-0.33483 -3.38919,0.24587 -4.29697,1.639 -0.67766,1.06978 -1.02643,2.32707 -1.24171,3.56473 -0.13224,1.78358 -0.34171,3.58161 -0.19999,5.37138 0.24178,1.17044 0.43598,2.57031 1.53675,3.26445 1.46477,1.16914 3.37559,1.68358 5.23023,1.6236 1.14806,-0.0998 2.10889,-0.98079 2.38428,-2.08624 0.71824,-1.68913 1.38354,-3.52491 0.97127,-5.38528 -0.32057,-1.41549 0.02,-3.33029 -0.64906,-4.64072 -0.51077,-1.18459 -1.01728,-1.90092 -2.05128,-2.674 -0.28461,-0.27188 -1.34684,-0.46692 -1.68352,-0.67692 z"
         id="path37666"
         sodipodi:nodetypes="ccccccccccc" />
      <path
         d="m 205.16458,-19.0951 c -1.32583,-0.84926 -1.93413,-2.40547 -1.93413,-4.94804 0,-4.28308 2.00991,-7.16005 4.70224,-6.73078 1.05048,0.1675 2.40153,1.84898 2.97347,3.70073 0.77882,2.5215 0.68904,4.09999 -0.34096,5.9947 -2.4267,2.40064 -3.78208,3.01205 -5.40062,1.98339 z"
         style="fill:#d0a86a;stroke-width:0.0700042"
         id="path34069" />
      <path
         d="m 215.04354,-19.57204 -1.03333,-0.52716 c -2.09817,-1.07041 -3.12096,-3.49898 -2.84557,-6.75674 0.44063,-5.21265 3.30556,-8.13606 6.05482,-6.17841 1.38256,0.98447 2.1375,3.09061 2.27122,6.33626 0.0748,1.81457 5.3e-4,3.15821 -0.20933,3.79442 -0.37189,1.12685 -1.73209,2.79171 -2.28084,2.79171 -0.20321,0 -0.60498,0.23551 -0.89283,0.52336"
         style="fill:#77a38d;fill-opacity:1;stroke-width:0.0700042"
         id="path34261" />
      <path
         style="fill:#000000;stroke-width:0.264583"
         d="m 227.06631,-8.1273744 c 0.0925,-1.39663 0.16879,-4.5336196 0.16955,-6.9710996 0.001,-4.25492 0.0225,-4.43177 0.53053,-4.43177 0.49469,0 0.52923,0.17668 0.53005,2.71198 5.3e-4,1.49159 0.078,4.57106 0.17223,6.8432696 l 0.17135,4.1313 -0.87094,0.12783 -0.87095,0.12783 z"
         id="path69120" />
      <path
         style="fill:#000000;stroke-width:0.264583"
         d="m 215.33097,-9.4359444 c -2.55163,-21.8999986 0.84078,-20.7560446 0.80293,0.02601 -0.008,4.69944 -0.0667,5.49011 -0.40646,5.49011 -0.34009,0 -0.39688,-0.78929 -0.39688,-5.51612 z"
         id="path69118" />
      <path
         style="fill:#000000;stroke-width:0.264583"
         d="m 206.07056,-9.0740544 c 0,-7.9787396 0.24222,-14.4249396 0.54202,-14.4249396 0.22725,0 0.46577,5.91068 0.60496,14.9917096 l 0.098,6.39275 -0.62249,0.119 -0.62248,0.11899 z"
         id="path1485" />
    </g>
    <g
       id="g24689"
       transform="matrix(1.1865993,0,0,1.1865993,-247.94439,-16.141144)">
      <path
         style="fill:#71a9a1;fill-opacity:1;stroke:none;stroke-width:0.29121px;stroke-linecap:butt;stroke-linejoin:miter;stroke-opacity:1"
         d="m 391.24751,141.52753 v -8.33341 l 10.26849,-2e-5 0.36646,-9.79506 5.27679,-0.16469 0.22776,-7.66864 12.17083,-0.0154 0.13229,6.42735 h 2.70981 l 0.99439,13.30149 2.7781,-0.19382 c 0,0 -0.2191,-1.01158 0.83406,-2.4313 1.05316,-1.41973 2.50962,-2.91024 2.50962,-2.91024 l 1.14469,1.30005 -0.2551,10.48499 z"
         id="path17202"
         sodipodi:nodetypes="ccccccccccczcccc" />
      <path
         style="fill:#71a9a1;fill-opacity:1;stroke:none;stroke-width:0.264583px;stroke-linecap:butt;stroke-linejoin:miter;stroke-opacity:1"
         d="m 437.81407,144.43043 v -4.7625 h 3.94647 l 0.15459,4.10104 0.0775,1.07672 z"
         id="path20696"
         sodipodi:nodetypes="cccccc" />
      <path
         d="m 384.23595,141.84967 c 0.0942,-0.18472 1.50204,-0.32052 3.32291,-0.32052 h 3.15937 v -4.48723 -4.48723 h 5.42397 5.42395 v -4.9555 -4.95553 l 2.31511,-0.0926 2.31511,-0.0926 0.0743,-3.92631 c 0.0668,-3.53184 0.33864,-4.89848 0.66936,-3.36543 0.11421,0.5294 0.12272,0.52911 0.1517,-0.006 0.0286,-0.52787 0.47726,-0.56068 6.57913,-0.48078 l 6.54844,0.0858 0.0757,3.12503 0.0757,3.12504 h 1.44563 1.44562 v 6.73084 6.73085 h 1.5875 1.5875 v 3.52564 3.52571 h 1.98438 1.98437 v -4.16671 c 0,-2.29169 -0.0893,-4.16649 -0.19843,-4.1662 -0.10914,3e-4 -0.19844,-0.6717 -0.19844,-1.49335 0,-0.98885 -0.12426,-1.54483 -0.36757,-1.64466 -0.24959,0.14291 -0.23563,0.14474 -0.40171,0.30048 -1.1367,1.37232 -1.56271,1.97832 -2.39836,3.03378 -0.25691,0.31122 -0.40453,0.35258 -0.40453,0.11327 0,-0.50341 3.10037,-4.15999 3.51248,-4.14258 0.48647,0.0205 2.42762,2.22085 3.20843,3.63687 0.63945,1.15962 0.68743,1.50078 0.68743,4.88786 l -2e-5,3.64121 1.71979,2.56413 h 1.7198 v -3.17847 c 0,-1.78211 0.11353,-1.44155 0.25845,-1.50145 0.14215,-0.0588 1.27324,-0.0602 2.51353,-0.004 l 2.25509,0.10369 v 0.59651 2.3803 c -0.002,0.16219 0.12156,2.2782 -0.029,2.40164 -2.39466,1.96315 -22.69059,-2.71782 -23.7991,-2.72215 -22.8736,3e-5 -34.35663,-0.10745 -34.24794,-0.32049 z m 17.26642,-4.48724 0.0136,-4.1667 h -0.90093 c -0.87628,0 -0.90219,0.0373 -0.94715,1.36219 l -0.0834,6.94752 -0.17566,-1.81262 0.0103,-6.49709 h -2.23375 -2.23374 l -0.0575,4.08658 -0.0575,4.08659 -0.0827,-4.08659 -0.0827,-4.08658 h -1.71188 -1.71189 v 4.1667 4.16672 h 5.1207 5.12069 l 0.0136,-4.16672 z m 5.64896,-12.20186 0.008,-1.92467 -2.59813,0.0921 c -2.28414,0.0809 -2.59412,0.1598 -2.56504,0.65292 0.0182,0.30849 0.048,4.38306 0.0661,9.05458 l 0.0331,8.49369 h 1.45522 1.45519 c 2.8299,-0.27894 0.39776,-12.58896 2.14566,-16.36862 z m 4.46899,9.31715 v -7.05136 h -2.23912 -2.23912 l -0.076,7.05165 -0.076,7.05164 2.3151,-2.9e-4 2.31511,-2.9e-4 z m 4.7625,0 v -7.05136 h -1.98437 -1.98438 v 7.05136 7.05135 h 1.98438 1.98437 z m 6.35,0 v -7.05136 h -2.77812 -2.77813 v 7.05136 7.05135 h 2.77813 2.77812 z m 3.43958,3.82946 v -3.22192 l -1.38906,0.0969 -1.38906,0.0969 v 3.12309 3.12311 l 1.38906,0.004 1.38906,0.004 v -3.22183 z m 15.69572,6.09709 -0.0773,-3.64341 -0.0303,-0.65319 h -1.97325 -1.97323 v 1.10084 2.88465 l 3.36506,0.5327 c 0.94999,0.5218 -0.0685,0.64792 0.68902,-0.22159 z M 417.17657,124.2212 v -2.24361 h -4.89479 -4.8948 v 2.24361 2.24362 h 4.8948 4.89479 z m 2.51355,0 v -2.24303 h -0.99219 -0.9922 v 2.24361 2.24361 l 0.9922,2.7e-4 0.99219,2.2e-4 v -2.24307 z m 2.90831,1.92618 c 0.0888,-0.17403 0.0804,-1.18364 -0.0185,-2.24361 l -0.18001,-1.92714 h -1.04278 -1.04278 l 0.0848,2.24317 0.0848,2.24313 0.97657,3.2e-4 c 0.53712,2.5e-4 1.04922,-0.14193 1.138,-0.31593 z m -3.04061,-7.85203 v -2.74453 l -4.43176,0.0878 -4.43178,0.0878 -0.0792,2.21183 c -0.0435,1.21649 -0.0215,2.39368 0.0489,2.61596 0.0951,0.30031 1.25385,0.41459 4.51091,0.44483 l 4.3829,0.0407 z m -9.525,-0.16491 v -2.56414 h -1.32292 -1.32292 v 2.56414 2.56412 h 1.32292 1.32292 z"
         style="fill:#000000;stroke-width:0.0770492"
         id="path33799"
         sodipodi:nodetypes="cscccccccccsssscccccccccccccssscccsssscccssccccscccccsccccccccccccccccccccsscccccccccccccccccccccccccccccccccccccccccccccccccccccccccccccccccccccccccccccccccccccsscccccccccccc" />
    </g>
    <path
       style="fill:#5a827c;fill-opacity:1;stroke:none;stroke-width:0.264583px;stroke-linecap:butt;stroke-linejoin:miter;stroke-opacity:1"
       d="m 360.6906,152.95144 0.13229,-7.40474 h 3.96875 l 0.80748,7.40833 z"
       id="path3074" />
    <path
       style="fill:#70a89e;fill-opacity:1;stroke:none;stroke-width:0.264583px;stroke-linecap:butt;stroke-linejoin:miter;stroke-opacity:1"
       d="m 374.31672,133.90503 h 2.91044 v 19.05 h -2.91044 z"
       id="path6310" />
    <path
       style="fill:#70a89e;fill-opacity:1;stroke:none;stroke-width:0.264583px;stroke-linecap:butt;stroke-linejoin:miter;stroke-opacity:1"
       d="m 381.32821,152.95464 v -9.26031 l 1.98435,-0.52888 v -2.64583 h 10.05416 l 0.52922,-22.48959 h 10.09399 l -0.17211,34.92395 z"
       id="path9191" />
    <path
       style="fill:#70a89e;fill-opacity:1;stroke:none;stroke-width:0.264583px;stroke-linecap:butt;stroke-linejoin:miter;stroke-opacity:1"
       d="m 417.97297,147.43633 v 5.51884 h -5.29167 l -0.13247,-5.73726 z"
       id="path12659" />
    <path
       style="fill:#b04e44;fill-opacity:1;stroke:none;stroke-width:0.264583px;stroke-linecap:butt;stroke-linejoin:miter;stroke-opacity:1"
       d="m 378.02091,143.69462 h 2.9104 v 9.26041 h -2.9104 z"
       id="path12727" />
    <path
       style="fill:#b04e44;fill-opacity:1;stroke:none;stroke-width:0.264583px;stroke-linecap:butt;stroke-linejoin:miter;stroke-opacity:1"
       d="m 374.31672,136.81545 h 2.91044 v 2.38125 h -2.91044 v -2.38125"
       id="path15318"
       sodipodi:nodetypes="ccccc" />
    <path
       style="fill:#d8ba8d;fill-opacity:1;stroke:none;stroke-width:0.264583px;stroke-linecap:butt;stroke-linejoin:miter;stroke-opacity:1"
       d="m 407.12505,131.78837 2.4968,-4.70816 2.70259,4.27234 -0.17228,21.60248 h -5.02711 z"
       id="path15528"
       sodipodi:nodetypes="cccccc" />
    <path
       style="fill:#000000;stroke-width:0.264583"
       d="m 357.64799,153.21956 c 0,-0.14552 0.53268,-0.26458 1.18373,-0.26458 h 1.18374 l 0.073,-4.0349 0.073,-4.03489 h 2.64583 2.64584 l 0.073,4.03489 0.073,4.0349 h 4.09415 4.09415 v -9.78958 -9.78959 h 1.98438 1.98437 v 4.8948 4.89479 h 2.36863 2.36862 l 0.0788,-1.65365 0.0788,-1.65364 h 5.29167 5.29167 l 0.069,-11.17865 0.069,-11.17865 h 5.55338 5.55338 l 0.0166,11.17865 c 0.009,6.14825 0.002,14.12544 -0.0156,17.72708 l -0.0322,6.54844 h 1.07392 1.07392 v -10.67659 -10.67658 l 1.4722,-2.68488 c 0.80973,-1.47667 1.51403,-2.68487 1.56512,-2.68487 0.0511,0 0.72805,1.10133 1.50435,2.4474 l 1.41146,2.4474 0.13229,7.8052 0.13229,7.80521 4.0349,0.073 4.0349,0.073 v 3.03581 3.03582 h 2.10105 c 1.15558,0 2.17463,0.11906 2.26457,0.26458 0.10869,0.17587 -11.19795,0.26459 -33.71876,0.26459 -22.4118,0 -33.88228,-0.0896 -33.88228,-0.26459 z m 7.31357,-1.25677 c -0.0902,-0.5457 -0.16531,-2.21258 -0.16691,-3.70416 l -0.003,-2.71198 h -1.98438 -1.98437 l -0.0468,0.99218 c -0.0257,0.54571 -0.0555,2.21178 -0.0661,3.70238 l -0.0194,2.71018 2.21743,0.002 2.21743,0.002 -0.164,-0.99218 z m 12.2656,-5.62239 v -6.61459 h -1.45521 -1.45521 v 6.61459 6.61458 h 1.45521 1.45521 z m 3.70416,1.98437 v -4.63021 h -1.45521 -1.4552 v 4.63021 4.63021 h 1.4552 1.45521 z m 8.99584,0 v -4.63021 l -4.29948,-1.4e-4 -4.29948,-1.4e-4 v 4.63015 4.63015 l 4.29948,2e-4 4.29948,2e-4 z m 3.43958,-1.5875 v -6.21771 h -5.02708 -5.02709 v 1.32292 1.32292 h 3.57188 3.57187 v 4.89479 4.89479 h 1.45521 1.45521 z m 10.5371,-11.24524 0.0861,-17.46205 h -5.047 -5.047 v 17.4625 17.4625 l 4.96093,-5.3e-4 4.96094,-5.3e-4 0.0861,-17.46205 z m 8.24832,6.87962 v -10.58334 h -2.51355 -2.51354 v 10.58334 10.58333 h 2.51354 2.51355 z m 5.82083,7.82398 v -2.75934 l -2.4474,-0.0894 c -1.34606,-0.0491 -2.53669,-0.0506 -2.64583,-0.003 -0.10914,0.0474 -0.19844,1.32934 -0.19844,2.84872 v 2.76252 h 2.64584 2.64583 z m -40.74583,-12.18961 v -1.19062 h -1.45521 -1.45521 v 1.19062 1.19063 h 1.45521 1.45521 z m 0,-2.91041 v -1.19063 h -1.45521 -1.45521 v 1.19063 1.19062 h 1.45521 1.45521 z m 34.66041,-3.93831 c 0,-0.056 -0.50978,-0.99629 -1.13286,-2.08949 l -1.13286,-1.98764 -1.07563,2.08949 -1.07563,2.08949 h 2.20849 c 1.21467,0 2.20849,-0.0458 2.20849,-0.10185 z"
       id="path2965"
       sodipodi:nodetypes="csccccccccccccccccccccccccccccccccssscccccccssscccscccscccccccccccccccccccccccccccccccccccccccccccccccccccccccccccccccccccccsccccccccccccccccccccccsscccss" />
    <path
       style="fill:#363f40;fill-opacity:1;stroke:none;stroke-width:0.264583px;stroke-linecap:butt;stroke-linejoin:miter;stroke-opacity:1"
       d="m 426.30067,143.45217 v 13.02347 l -76.99375,-0.24861 c 0,0 5.11139,-3.52844 9.63324,-4.33216 4.52186,-0.80373 10.33047,0.75937 17.04007,-0.0975 6.7096,-0.85689 17.88381,-3.99768 25.05273,-7.00419 1.62199,-0.68023 7.86005,0.0261 12.60951,-0.0395 6.48792,-0.0896 12.6582,-1.30145 12.6582,-1.30145 z"
       id="path24724"
       sodipodi:nodetypes="ccczzssc" />
    <path
       style="fill:#363f40;fill-opacity:1;stroke:none;stroke-width:0.292206px;stroke-linecap:butt;stroke-linejoin:miter;stroke-opacity:1"
       d="m 207.30674,144.7678 -0.16965,11.84922 71.9443,-0.28472 c 0,0 -10.36363,-3.7003 -15.17942,-4.62078 -4.81578,-0.92048 -6.96794,-5.58273 -21.79528,-2.92217 -14.82735,2.66055 -12.34491,0.95748 -19.97983,-2.48575 -1.72742,-0.77904 -2.99145,-0.35763 -8.00018,-1.06724 -2.29902,-0.32571 -1.03397,-0.56043 -3.87302,-1.04431 -2.83905,-0.48388 -2.94692,0.57575 -2.94692,0.57575 z"
       id="path24724-0"
       sodipodi:nodetypes="ccczzsszc" />
    <g
       id="g70736"
       transform="matrix(0.87989254,0,0,0.87989254,47.977434,199.94982)">
      <path
         style="fill:#93261e;fill-opacity:1;stroke:none;stroke-width:0.172259px;stroke-linecap:butt;stroke-linejoin:miter;stroke-opacity:1"
         d="m 225.64474,-71.742874 c -1.06344,-0.02949 -1.98338,0.72058 -2.45942,1.624668 -0.41831,0.73062 -0.56049,1.56983 -0.71123,2.386155 -0.19102,1.394037 0.0479,2.942668 1.01117,4.021826 0.69381,0.750405 1.73331,1.179883 2.75413,1.135904 0.98677,-0.02728 2.02834,-0.604079 2.31152,-1.598645 0.27728,-1.222255 0.59695,-2.45561 0.57651,-3.720073 -0.005,-1.180678 -0.33115,-2.425218 -1.17509,-3.288459 -0.60848,-0.566168 -1.51049,-0.733243 -2.30759,-0.561376 z"
         id="path37668"
         sodipodi:nodetypes="ccccccccc" />
      <path
         style="fill:#3f4231;fill-opacity:1;stroke:none;stroke-width:0.172259px;stroke-linecap:butt;stroke-linejoin:miter;stroke-opacity:1"
         d="m 232.14527,-72.824226 c -1.19542,-0.981675 -2.88145,0.102887 -3.40051,1.318273 -0.60496,1.71413 -0.5308,3.625792 -0.20385,5.39357 0.0931,1.649441 1.5954,3.120134 3.29347,2.614312 1.49242,-0.702474 2.53411,-2.345828 2.69184,-3.978888 0.22429,-1.44424 -0.11448,-3.00349 -1.19454,-4.042712 -0.44684,-0.570159 -0.90182,-1.160437 -1.52885,-1.544217"
         id="path37670" />
      <path
         style="fill:#fdbc6a;fill-opacity:1;stroke:none;stroke-width:0.172259px;stroke-linecap:butt;stroke-linejoin:miter;stroke-opacity:1"
         d="m 249.86003,-68.106134 c -0.80796,-0.06874 -1.51151,0.180656 -2.13732,0.805823 -1.05097,0.88787 -1.55099,2.327872 -1.38127,3.681257 0.0401,1.047425 0.44786,2.03912 0.91182,2.963566 0.62686,0.938113 1.76062,1.334992 2.81657,1.557049 1.11131,0.171399 2.29199,-0.321102 2.92412,-1.257073 0.9455,-1.232001 1.27178,-2.979674 0.61585,-4.418432 -0.35525,-0.855096 -0.75293,-1.706083 -1.27344,-2.471424 -0.72815,-0.597113 -1.68402,-0.768081 -2.47633,-0.860766"
         id="path37674"
         sodipodi:nodetypes="ccccccccc" />
      <path
         style="fill:#000000;stroke-width:0.172259"
         d="m 249.30622,-56.407284 c 0,-2.295391 -0.0514,-3.01517 -0.21533,-3.017182 -0.15024,-0.002 -0.15761,-0.04089 -0.0244,-0.12919 0.10951,-0.07259 0.20644,-0.749897 0.22735,-1.588437 0.02,-0.804026 0.0664,-1.491878 0.10311,-1.528545 0.0367,-0.03665 0.1863,-0.02077 0.3325,0.03535 0.23034,0.08839 0.26582,0.711954 0.26582,4.672294 0,4.455444 -0.009,4.570284 -0.34452,4.570284 -0.33139,0 -0.34452,-0.11484 -0.34452,-3.014544 z"
         id="path69126" />
      <path
         style="fill:#000000;stroke-width:0.172259"
         d="m 230.57646,-57.81155 c 6e-5,-0.408512 0.0447,-1.069305 0.009,-1.732507 -0.0357,-0.663196 0.10021,-2.792324 0.051,-4.647701 -0.0785,-2.961321 -0.0571,-3.373423 0.17578,-3.373423 0.23311,0 0.26526,0.643866 0.26526,5.311342 0,4.384036 -0.0412,5.311334 -0.23615,5.311334 -0.18264,0 -0.26498,0.201814 -0.2649,-0.372633 z"
         id="path69124" />
      <path
         style="fill:#000000;stroke-width:0.172259"
         d="m 225.22068,-57.514513 c 0,-0.697187 0.051,-2.675342 0.11332,-4.395905 0.10044,-2.773145 0.14625,-3.128285 0.40345,-3.128285 0.26095,0 0.30207,0.426933 0.40875,4.243785 0.0652,2.334083 0.0968,4.261096 0.0703,4.282256 -0.0266,0.02116 -0.26152,0.08961 -0.52206,0.15212 l -0.47372,0.113643 z"
         id="path69122" />
    </g>
  </g>
</svg>
