<?xml version="1.0" encoding="UTF-8" standalone="no"?>
<!-- Created with Inkscape (http://www.inkscape.org/) -->

<svg
   width="217.80664mm"
   height="33.194mm"
   viewBox="0 0 217.80664 33.193999"
   version="1.1"
   id="svg833"
   inkscape:version="1.1.2 (0a00cf5339, 2022-02-04, custom)"
   sodipodi:docname="text-only.svg"
   inkscape:export-filename="G:\My Drive\Projects\Sheffield AI\svg graphics\logo.png"
   inkscape:export-xdpi="131.78"
   inkscape:export-ydpi="131.78"
   xmlns:inkscape="http://www.inkscape.org/namespaces/inkscape"
   xmlns:sodipodi="http://sodipodi.sourceforge.net/DTD/sodipodi-0.dtd"
   xmlns="http://www.w3.org/2000/svg"
   xmlns:svg="http://www.w3.org/2000/svg">
  <sodipodi:namedview
     id="namedview835"
     pagecolor="#ffffff"
     bordercolor="#666666"
     borderopacity="1.0"
     inkscape:pageshadow="2"
     inkscape:pageopacity="0.0"
     inkscape:pagecheckerboard="0"
     inkscape:document-units="mm"
     showgrid="false"
     inkscape:zoom="0.44473809"
     inkscape:cx="-614.96869"
     inkscape:cy="-708.28204"
     inkscape:window-width="2560"
     inkscape:window-height="1369"
     inkscape:window-x="-8"
     inkscape:window-y="-8"
     inkscape:window-maximized="1"
     inkscape:current-layer="text77795"
     fit-margin-top="0"
     fit-margin-left="0"
     fit-margin-right="0"
     fit-margin-bottom="0"
     inkscape:snap-global="false" />
  <defs
     id="defs830">
    <rect
       x="384.49597"
       y="1250.174"
       width="1077.0385"
       height="299.0524"
       id="rect77797" />
    <inkscape:path-effect
       effect="fill_between_many"
       method="originald"
       linkedpaths="#path10025,0,1"
       id="path-effect10027"
       is_visible="true"
       lpeversion="0"
       join="true"
       close="true"
       autoreverse="true"
       applied="false" />
    <rect
       x="384.49597"
       y="1250.174"
       width="1077.0385"
       height="299.0524"
       id="rect77797-5" />
  </defs>
  <g
     inkscape:label="Layer 1"
     inkscape:groupmode="layer"
     id="layer1"
     transform="translate(-206.05377,-162.13628)">
    <g
       aria-label="sheffield.ai"
       transform="matrix(0.23051389,0,0,0.23051389,116.27136,-134.26417)"
       id="text77795"
       style="font-size:192px;line-height:1.25;white-space:pre;shape-inside:url(#rect77797);opacity:0.644578;fill:#000000;fill-opacity:1">
      <path
         d="m 432.88009,1429.8247 q -12.672,0 -24,-4.032 -11.328,-4.224 -19.392,-12.48 l 7.872,-14.208 q 8.64,7.68 17.28,11.136 8.832,3.456 17.472,3.456 8.832,0 14.4,-3.264 5.568,-3.456 5.568,-9.984 0,-4.8 -2.88,-7.104 -2.88,-2.304 -8.448,-4.032 -5.376,-1.728 -13.056,-3.84 -10.752,-3.264 -18.048,-6.72 -7.296,-3.648 -10.944,-8.832 -3.648,-5.184 -3.648,-13.248 0,-9.792 4.992,-16.704 4.992,-6.912 13.824,-10.56 9.024,-3.648 20.736,-3.648 10.944,0 20.16,3.456 9.408,3.264 16.512,10.368 l -9.024,14.016 q -6.72,-6.144 -13.824,-9.024 -6.912,-2.88 -14.976,-2.88 -4.608,0 -8.832,1.152 -4.224,0.96 -7.104,3.84 -2.688,2.688 -2.688,7.68 0,4.032 2.304,6.528 2.304,2.496 6.912,4.224 4.608,1.728 11.328,3.84 11.712,3.456 19.968,6.912 8.256,3.264 12.672,8.64 4.608,5.184 4.608,14.4 0,14.592 -10.944,22.848 -10.752,8.064 -28.8,8.064 z"
         style="font-weight:600;font-family:Raleway;-inkscape-font-specification:'Raleway Semi-Bold';fill:#000000;fill-opacity:1"
         id="path4664" />
      <path
         d="m 581.48794,1427.9047 h -21.12 v -56.256 q 0,-13.632 -4.992,-20.352 -4.992,-6.72 -14.016,-6.72 -5.568,0 -11.52,3.072 -5.952,3.072 -10.56,8.448 -4.608,5.184 -6.72,12.096 v 59.712 h -21.12 v -140.16 h 21.12 v 59.904 q 5.76,-10.176 15.744,-15.936 9.984,-5.952 21.504,-5.952 9.408,0 15.552,3.264 6.144,3.264 9.6,9.024 3.648,5.568 4.992,13.056 1.536,7.296 1.536,15.552 z"
         style="font-weight:600;font-family:Raleway;-inkscape-font-specification:'Raleway Semi-Bold';fill:#000000;fill-opacity:1"
         id="path4666" />
      <path
         d="m 651.56797,1429.8247 q -11.712,0 -21.312,-4.032 -9.408,-4.224 -16.32,-11.328 -6.912,-7.296 -10.752,-16.512 -3.648,-9.408 -3.648,-19.968 0,-14.208 6.528,-25.92 6.528,-11.904 18.24,-19.008 11.712,-7.296 27.456,-7.296 15.744,0 27.072,7.296 11.52,7.104 17.856,18.816 6.336,11.712 6.336,25.152 0,2.304 -0.192,4.416 -0.192,1.92 -0.384,3.264 h -80.448 q 0.576,8.832 4.8,15.552 4.416,6.528 11.136,10.368 6.72,3.648 14.4,3.648 8.448,0 15.936,-4.224 7.68,-4.224 10.368,-11.136 l 18.048,5.184 q -3.264,7.296 -9.984,13.248 -6.528,5.76 -15.552,9.216 -9.024,3.264 -19.584,3.264 z m -30.144,-59.136 h 60.672 q -0.576,-8.64 -4.992,-15.168 -4.224,-6.72 -10.944,-10.368 -6.528,-3.84 -14.592,-3.84 -7.872,0 -14.592,3.84 -6.528,3.648 -10.752,10.368 -4.224,6.528 -4.8,15.168 z"
         style="font-weight:600;font-family:Raleway;-inkscape-font-specification:'Raleway Semi-Bold';fill:#000000;fill-opacity:1"
         id="path4668" />
      <path
         d="m 725.16039,1427.9047 v -81.6 h -13.44 v -16.32 h 13.44 v -1.536 c 0,-6.4 1.344,-12.288 4.032,-17.664 2.688,-5.376 6.528,-9.664 11.52,-12.864 5.12,-3.328 11.136,-4.992 18.048,-4.992 4.736,0 9.088,0.576 13.056,1.728 3.968,1.152 7.872,2.624 11.712,4.416 l -4.992,16.32 c -2.816,-1.664 -5.504,-2.816 -8.064,-3.456 -2.432,-0.64 -4.928,-0.96 -7.488,-0.96 -2.816,0 -5.248,0.512 -7.296,1.536 -2.048,0.896 -3.776,2.176 -5.184,3.84 -1.408,1.536 -2.496,3.328 -3.264,5.376 -0.64,1.92 -0.96,3.904 -0.96,5.952 v 2.304 h 25.728 v 16.32 h -25.728 v 81.6 z m 48.192,-81.6 h -13.44 v -16.32 h 13.44 v -4.032 c 0,-5.248 0.832,-10.24 2.496,-14.976 1.664,-4.864 4.16,-9.152 7.488,-12.864 3.328,-3.84 7.36,-6.848 12.096,-9.024 4.864,-2.176 10.496,-3.264 16.896,-3.264 4.736,0 9.152,0.512 13.248,1.536 4.096,1.024 7.872,2.432 11.328,4.224 3.584,1.664 6.784,3.456 9.6,5.376 l -8.64,15.744 c -2.944,-2.56 -6.592,-4.672 -10.944,-6.336 -4.224,-1.664 -8.704,-2.496 -13.44,-2.496 -4.224,0 -7.808,1.024 -10.752,3.072 -2.816,2.048 -4.928,4.736 -6.336,8.064 -1.28,3.328 -1.92,6.784 -1.92,10.368 v 4.608 h 52.608 v 97.92 h -21.12 v -52.1925 -29.4075 h -31.488 v 81.6 h -21.12 z"
         style="font-weight:600;font-family:Raleway;-inkscape-font-specification:'Raleway Semi-Bold';fill:#000000;fill-opacity:1"
         id="path4670"
         sodipodi:nodetypes="cccccsscsscccscccsccccccccccscccssccccsccscccccccccc" />
      <path
         d="m 917.7363,1429.8247 q -11.712,0 -21.312,-4.032 -9.408,-4.224 -16.32,-11.328 -6.912,-7.296 -10.752,-16.512 -3.648,-9.408 -3.648,-19.968 0,-14.208 6.528,-25.92 6.528,-11.904 18.24,-19.008 11.712,-7.296 27.456,-7.296 15.744,0 27.072,7.296 11.52,7.104 17.856,18.816 6.336,11.712 6.336,25.152 0,2.304 -0.192,4.416 -0.192,1.92 -0.384,3.264 h -80.448 q 0.576,8.832 4.8,15.552 4.416,6.528 11.136,10.368 6.72,3.648 14.4,3.648 8.448,0 15.936,-4.224 7.68,-4.224 10.368,-11.136 l 18.048,5.184 q -3.264,7.296 -9.984,13.248 -6.528,5.76 -15.552,9.216 -9.024,3.264 -19.584,3.264 z m -30.144,-59.136 h 60.672 q -0.576,-8.64 -4.992,-15.168 -4.224,-6.72 -10.944,-10.368 -6.528,-3.84 -14.592,-3.84 -7.872,0 -14.592,3.84 -6.528,3.648 -10.752,10.368 -4.224,6.528 -4.8,15.168 z"
         style="font-weight:600;font-family:Raleway;-inkscape-font-specification:'Raleway Semi-Bold';fill:#000000;fill-opacity:1"
         id="path4672" />
      <path
         d="m 986.66417,1287.7447 h 21.12003 v 111.168 q 0,7.68 2.304,9.792 2.304,2.112 5.76,2.112 3.84,0 7.104,-0.768 3.456,-0.768 5.952,-1.92 l 3.072,16.704 q -4.608,1.92 -10.944,3.264 -6.336,1.344 -11.328,1.344 -10.75203,0 -16.89603,-5.952 -6.144,-6.144 -6.144,-16.896 z"
         style="font-weight:600;font-family:Raleway;-inkscape-font-specification:'Raleway Semi-Bold';fill:#000000;fill-opacity:1"
         id="path4674" />
      <path
         d="m 1037.9283,1377.7927 q 0,-14.4 5.76,-26.112 5.952,-11.904 16.128,-18.816 10.176,-7.104 23.424,-7.104 11.52,0 20.736,5.952 9.408,5.952 14.592,14.784 v -58.752 h 21.12 v 116.352 q 0,3.648 1.344,5.184 1.344,1.536 4.416,1.728 v 16.896 q -5.952,0.96 -9.216,0.96 -5.952,0 -10.176,-3.456 -4.032,-3.456 -4.224,-8.256 l -0.192,-7.488 q -5.76,9.6 -15.552,14.976 -9.792,5.184 -20.352,5.184 -10.368,0 -19.2,-4.032 -8.64,-4.032 -15.168,-11.328 -6.336,-7.296 -9.984,-16.704 -3.456,-9.408 -3.456,-19.968 z m 80.64,14.016 v -26.304 q -2.112,-6.144 -6.912,-10.944 -4.608,-4.992 -10.56,-7.872 -5.76,-2.88 -11.52,-2.88 -6.72,0 -12.288,2.88 -5.376,2.88 -9.408,7.68 -3.84,4.8 -5.952,10.944 -2.112,6.144 -2.112,12.864 0,6.912 2.304,13.056 2.304,5.952 6.528,10.752 4.416,4.608 9.984,7.296 5.76,2.496 12.48,2.496 4.224,0 8.448,-1.536 4.416,-1.536 8.256,-4.224 4.032,-2.688 6.72,-6.336 2.88,-3.648 4.032,-7.872 z"
         style="font-weight:600;font-family:Raleway;-inkscape-font-specification:'Raleway Semi-Bold';fill:#000000;fill-opacity:1"
         id="path4676" />
    </g>
    <path
       d="m 384.38175,194.59399 v -5.66511 h 4.02754 v 5.66511 z"
       style="font-weight:600;font-size:192px;line-height:1.25;font-family:Raleway;-inkscape-font-specification:'Raleway Semi-Bold';white-space:pre;shape-inside:url(#rect77797);opacity:1;fill:#000000;fill-opacity:1;stroke-width:0.230514"
       id="path4678" />
    <path
       d="m 392.34828,187.82241 q 0,-2.21293 1.23925,-3.8505 1.2835,-1.68183 3.49643,-2.56701 2.21294,-0.92943 5.13401,-0.92943 1.54905,0 3.14236,0.2213 1.63757,0.22129 2.87682,0.70813 v -1.46053 q 0,-2.43423 -1.46054,-3.80625 -1.46054,-1.37202 -4.20457,-1.37202 -1.94738,0 -3.67347,0.70814 -1.72609,0.66388 -3.67347,1.90313 l -1.63757,-3.27515 q 2.30145,-1.54905 4.6029,-2.30145 2.34571,-0.75239 4.91271,-0.75239 4.64716,0 7.30268,2.47848 2.69978,2.43423 2.69978,6.94861 v 8.63044 q 0,0.84092 0.26555,1.19499 0.30981,0.35407 1.01795,0.39832 v 3.89477 q -0.66388,0.13277 -1.19498,0.17703 -0.53111,0.0443 -0.88518,0.0443 -1.54905,0 -2.34571,-0.7524 -0.79665,-0.75239 -0.92943,-1.77034 l -0.13277,-1.32776 q -1.5048,1.94738 -3.85051,3.00959 -2.34571,1.0622 -4.73568,1.0622 -2.30145,0 -4.11605,-0.92943 -1.81461,-0.97369 -2.83256,-2.61126 -1.01795,-1.63757 -1.01795,-3.67347 z m 14.73814,1.41628 q 0.5311,-0.57536 0.84092,-1.15073 0.30981,-0.57536 0.30981,-1.01795 v -2.65552 q -1.23925,-0.48684 -2.61127,-0.70814 -1.37201,-0.26555 -2.69977,-0.26555 -2.65552,0 -4.33735,1.06221 -1.63757,1.06221 -1.63757,2.92107 0,1.01795 0.5311,1.94738 0.57536,0.92944 1.59331,1.5048 1.06221,0.57536 2.61126,0.57536 1.59332,0 3.05385,-0.61962 1.46054,-0.61962 2.34571,-1.59331 z"
       style="font-weight:600;font-size:192px;line-height:1.25;font-family:Raleway;-inkscape-font-specification:'Raleway Semi-Bold';white-space:pre;shape-inside:url(#rect77797);opacity:1;fill:#000000;fill-opacity:1;stroke-width:0.230514"
       id="path4680" />
    <path
       d="M 418.99196,194.59399 V 171.4467 h 4.86845 v 23.14729 z m 0,-26.95353 v -5.3553 h 4.86845 v 5.3553 z"
       style="font-weight:600;font-size:192px;line-height:1.25;font-family:Raleway;-inkscape-font-specification:'Raleway Semi-Bold';white-space:pre;shape-inside:url(#rect77797);opacity:1;fill:#000000;fill-opacity:1;stroke-width:0.230514"
       id="path4682" />
  </g>
</svg>
